<svg version="1.1" id="Layer_1" xmlns="http://www.w3.org/2000/svg" xmlns:xlink="http://www.w3.org/1999/xlink" x="0px" y="0px"
	 width="100%" viewBox="0 0 800 1024" enable-background="new 0 0 800 1024" xml:space="preserve">
<path fill="#000000" opacity="1.000000" stroke="none" 
	d="
M172.000641,481.284302 
	C173.130188,473.092438 173.517471,465.260864 175.364838,457.627930 
	C175.971359,455.121857 176.452942,452.300232 179.532928,452.186005 
	C182.721176,452.067749 183.993790,454.814575 184.747604,457.435303 
	C186.273529,462.740387 186.692993,468.239960 187.019363,473.716187 
	C188.383408,496.603333 185.613876,518.700623 173.332108,538.659790 
	C163.775650,554.190063 164.002655,571.000183 166.486710,588.019775 
	C169.024597,605.408264 169.029587,622.871399 169.215698,640.352600 
	C169.314987,649.679443 169.863724,649.712341 179.421814,648.294067 
	C204.223511,644.613892 219.473846,629.442688 229.356049,607.649719 
	C237.764008,589.107971 243.834396,569.702637 250.147903,550.391479 
	C250.690536,548.731812 250.990341,547.111572 250.018143,545.582642 
	C243.420929,535.207642 238.971695,524.006104 237.449051,511.912781 
	C234.288116,511.042053 232.149292,512.764832 229.784653,513.294067 
	C221.912140,515.055969 216.511948,510.996063 216.662262,502.891083 
	C217.045242,482.240784 222.152985,462.422485 227.868958,442.761047 
	C230.003662,435.418213 232.809830,428.271271 235.276459,421.023651 
	C235.744690,419.647827 236.055664,418.218475 236.410751,416.918091 
	C234.299240,415.035278 231.933197,414.787231 229.711288,414.173981 
	C203.344543,406.897034 184.104370,383.738678 181.622009,356.410645 
	C178.847855,325.870087 188.296799,300.278931 212.544479,280.913177 
	C222.318451,273.107056 233.652390,268.275818 245.951111,265.834442 
	C253.260986,264.383453 253.301147,264.401459 251.780029,256.829315 
	C250.797485,251.938232 249.616379,247.086411 248.671509,242.188599 
	C248.062454,239.031631 246.723175,237.484268 243.138275,237.112778 
	C228.167267,235.561371 214.065353,231.292923 201.950775,221.941589 
	C184.199051,208.238861 176.937103,189.692383 179.088623,167.871323 
	C181.337952,145.058304 193.205704,128.205841 214.447388,118.970032 
	C238.275009,108.609879 262.559875,110.633797 286.776886,117.843361 
	C292.048798,119.412842 295.247955,122.953506 295.429688,129.335846 
	C300.732208,127.301048 304.907806,124.361809 309.042694,121.401863 
	C328.424683,107.527267 346.517487,91.982231 365.570770,77.684158 
	C378.364349,68.083527 391.305695,58.654102 405.570190,51.286198 
	C438.190552,34.437183 471.962006,30.114758 506.961090,42.929890 
	C548.177124,58.021397 564.700745,94.230789 556.794312,133.776932 
	C551.947754,158.017944 539.213440,178.137680 523.900818,196.919250 
	C523.374756,197.564407 522.881714,198.282669 522.226624,198.769516 
	C512.166199,206.246033 510.855042,215.572372 513.899109,227.460159 
	C517.223389,240.442184 518.270996,254.008667 520.271545,267.326324 
	C520.521057,268.987183 520.714111,270.619995 522.037048,272.140900 
	C527.294434,270.388885 532.559021,268.371002 537.967651,266.873535 
	C582.549866,254.530273 628.142212,281.909698 638.106995,327.107574 
	C642.799744,348.392456 641.090515,368.913177 628.835266,387.594360 
	C619.466614,401.875336 606.091492,410.693237 589.608887,414.926300 
	C588.189575,415.290802 586.598938,415.278473 585.107971,416.773804 
	C586.911072,422.348602 588.751099,428.151642 590.663696,433.930664 
	C597.584229,454.842102 602.160278,476.266968 604.980957,498.098938 
	C606.706299,511.453278 600.445679,516.479065 587.653992,511.800262 
	C586.886780,511.519653 586.085571,511.331970 585.315796,511.105652 
	C583.607422,512.279846 583.744446,514.134521 583.482422,515.641968 
	C580.337280,533.734741 571.527954,548.718140 558.333618,561.195679 
	C555.307556,564.057251 555.044067,565.901123 558.292358,568.695251 
	C576.281616,584.169128 586.513550,604.254333 592.070496,626.925049 
	C593.128662,631.242126 595.306702,633.968140 599.056091,635.982300 
	C607.829773,640.695496 616.873840,644.017273 627.090820,643.774414 
	C643.241821,643.390442 652.777466,634.334900 652.529968,618.182373 
	C652.309937,603.828796 649.374146,589.756287 646.244263,575.794678 
	C640.656311,550.867798 636.525940,525.770691 637.760498,500.131195 
	C638.779480,478.967926 642.965454,458.544464 654.212402,440.123352 
	C656.063538,437.091400 658.378296,434.497345 661.466187,432.685272 
	C667.757996,428.993073 673.240540,430.613678 676.181152,437.324677 
	C679.704895,445.366394 680.489624,454.038696 681.261963,462.651276 
	C685.898376,514.355042 683.637146,566.199219 684.327820,617.983643 
	C684.422241,625.061646 684.333008,624.762695 691.215210,624.055664 
	C706.246338,622.511414 721.218567,619.494995 736.453125,621.692810 
	C739.069885,622.070312 739.077515,622.017395 741.582031,624.339417 
	C740.213867,626.988525 737.443237,626.887085 735.167603,627.216003 
	C720.516785,629.333801 705.859436,631.433899 691.161926,633.185181 
	C686.025818,633.797180 684.204773,635.772278 684.272522,641.109985 
	C684.756836,679.265076 684.923889,717.424072 685.230408,755.581543 
	C685.264038,759.767517 685.028809,763.918823 684.134094,767.999756 
	C682.453369,775.665771 676.352905,780.292725 669.264893,779.388367 
	C669.103271,777.998047 670.277832,777.786133 671.125671,777.411743 
	C677.253479,774.706421 679.578613,769.563110 679.713806,763.351990 
	C679.927673,753.524170 679.844849,743.689026 679.830933,733.857117 
	C679.788086,703.526123 679.728577,673.195007 679.635193,642.864136 
	C679.629150,640.915039 680.104248,638.866333 678.716187,636.561768 
	C673.572388,637.636475 670.133972,640.997498 667.646423,645.379578 
	C662.437439,654.556213 661.064819,664.885559 659.410522,675.043640 
	C655.318420,700.170715 652.269409,725.444885 649.539917,750.752075 
	C649.024597,755.530090 649.030334,760.430420 649.421143,765.223389 
	C649.910522,771.226685 652.473999,776.095398 658.805359,778.062378 
	C659.636108,778.320435 660.849304,778.450012 660.911804,779.796570 
	C653.154297,781.445923 645.964539,776.922546 643.732117,768.704102 
	C641.506897,760.512268 642.429443,752.103577 643.005615,743.844604 
	C644.811401,717.957092 647.845825,692.186584 651.753662,666.533997 
	C653.153870,657.342163 654.715698,648.069031 659.693115,639.918579 
	C663.294373,634.021545 668.399170,629.703613 675.046997,627.808105 
	C678.736145,626.756165 679.539917,624.756287 679.511841,621.351990 
	C679.165527,579.362244 679.150818,537.367920 678.493042,495.383575 
	C678.261475,480.608154 677.471069,465.763702 674.624939,451.172729 
	C673.895569,447.433197 672.930237,443.675537 671.515320,440.150177 
	C669.732422,435.707794 666.969727,435.207153 663.413147,438.510895 
	C657.213623,444.269562 654.256775,451.965698 651.647095,459.702179 
	C644.342407,481.356720 643.237122,503.570312 644.936768,526.265259 
	C646.707397,549.908630 652.146912,572.890747 655.742310,596.198914 
	C657.081787,604.882568 658.573181,613.565857 657.528198,622.489441 
	C655.159607,642.715210 641.798950,649.514343 623.578918,648.836792 
	C615.851379,648.549500 608.516479,646.316406 601.492432,643.043091 
	C599.807495,642.257874 597.903931,640.264343 596.067505,642.072754 
	C594.541809,643.575256 595.555237,645.841614 595.735229,647.809082 
	C596.924866,660.810669 597.188416,673.792236 593.182861,686.418762 
	C584.282410,714.475647 560.107361,726.259827 533.467163,721.824463 
	C524.617798,720.351013 526.193176,720.099976 523.081055,727.432556 
	C516.179932,743.692505 507.631042,758.827698 493.047028,769.676636 
	C478.824829,780.256409 462.870880,782.547974 446.052307,778.822571 
	C430.979187,775.483887 420.144531,761.319580 419.635834,745.710999 
	C419.577423,743.918640 419.924255,742.004639 418.063751,740.004883 
	C410.210999,743.448486 401.879669,746.866699 393.181305,742.151978 
	C384.401276,737.392883 383.472839,728.611877 383.013245,719.913025 
	C379.943115,719.895447 379.123932,721.916138 378.015503,723.459534 
	C374.106934,728.901978 369.445435,733.667908 364.671356,738.318481 
	C360.059204,742.811096 355.177002,743.418640 350.739166,740.292053 
	C346.068176,737.001221 345.239563,732.724609 348.005127,726.621582 
	C348.730621,725.020508 350.162903,723.583740 349.394806,721.252014 
	C347.284210,721.882751 346.464478,723.726440 345.298248,725.197571 
	C336.969208,735.704407 328.193115,745.697815 315.390015,751.025635 
	C292.849152,760.405640 272.401123,750.123108 266.516968,726.406006 
	C265.885315,723.860107 265.056152,721.978638 262.133728,721.038940 
	C241.102356,714.276794 230.364639,698.654053 226.835495,677.839478 
	C223.174667,656.248291 226.355194,635.061279 232.921188,614.321106 
	C233.165054,613.550720 233.434006,612.788330 233.097137,611.705750 
	C232.211990,613.319275 231.283524,614.910706 230.448212,616.549622 
	C218.689606,639.620361 199.439148,651.550659 174.089401,654.149109 
	C170.441101,654.523071 169.096130,655.743469 169.285370,659.339966 
	C170.247589,677.627686 171.207092,695.916748 171.961990,714.213806 
	C172.730515,732.840881 174.894440,751.421936 174.253967,770.089294 
	C173.992035,777.723877 172.705795,785.664062 164.208755,788.555298 
	C156.063065,791.326843 149.824799,786.807739 144.347198,781.191345 
	C137.109467,773.770142 134.967621,764.447083 134.803558,754.588745 
	C134.556747,739.760437 135.009750,724.916443 134.577682,710.096252 
	C134.165421,695.955811 132.693527,681.866089 129.332321,668.070129 
	C124.126144,646.701416 111.581047,631.137512 91.927528,621.273254 
	C89.100174,619.854248 86.264854,618.416931 83.590866,616.737122 
	C81.377113,615.346252 78.517647,613.732056 80.314270,610.497864 
	C81.990181,607.481018 84.769127,609.018799 86.964302,610.034180 
	C109.465149,620.442261 125.989189,636.311646 133.490524,660.612976 
	C138.899490,678.136047 140.475830,696.147034 141.057022,714.317688 
	C141.557587,729.967285 140.144653,745.624207 141.198883,761.274536 
	C141.648392,767.947571 143.735703,773.946838 148.138657,779.090149 
	C150.273743,781.584351 152.954239,783.231689 155.974747,784.250366 
	C162.306473,786.385681 167.333221,783.352966 168.596313,776.860413 
	C169.717529,771.096985 169.899887,765.278259 169.576767,759.448120 
	C167.725250,726.040833 165.797363,692.637756 163.996124,659.227783 
	C163.821609,655.990967 162.846695,654.559509 159.350708,654.298828 
	C144.080185,653.159851 136.537857,643.204956 138.234619,627.806519 
	C140.328964,608.799988 142.033310,589.747498 143.656570,570.693542 
	C144.428040,561.638000 142.172546,552.981689 137.368652,545.384521 
	C125.610199,526.788757 124.959625,506.440643 127.102112,485.565460 
	C127.814644,478.622955 128.641144,471.679108 129.803497,464.801392 
	C130.384552,461.363281 130.554886,456.212250 135.056091,456.325073 
	C139.904037,456.446533 139.001053,461.501495 139.319260,465.034454 
	C140.808243,481.566376 139.701035,498.309509 143.402832,515.698425 
	C144.200439,501.329224 144.912979,487.985382 145.696136,474.645691 
	C145.988586,469.664124 146.357986,464.683228 146.869492,459.720276 
	C147.086288,457.616669 147.318771,454.957458 150.208496,454.946198 
	C153.154358,454.934723 153.296997,457.610352 153.471527,459.719727 
	C154.143585,467.842255 154.949966,475.968079 155.188538,484.107819 
	C155.411514,491.715820 157.017883,499.216888 156.102158,507.662933 
	C158.072815,505.334595 157.605377,503.440887 157.614670,501.700684 
	C157.687637,488.038727 159.054688,474.447601 159.794754,460.822754 
	C159.848450,459.834259 160.039795,458.836212 160.303696,457.880310 
	C160.661224,456.585175 161.118317,455.169098 162.720230,455.053375 
	C164.606781,454.917053 165.442108,456.424927 165.664536,457.893402 
	C166.336136,462.327362 166.962112,466.785034 167.254044,471.256439 
	C168.023209,483.038147 168.606506,494.831940 169.509338,506.643066 
	C169.085327,498.208344 171.934799,490.123688 172.000641,481.284302 
M258.144470,542.348999 
	C264.606812,551.466309 273.207092,558.454468 281.870148,565.265259 
	C281.281982,566.041626 281.130493,566.367432 280.876678,566.554260 
	C279.938568,567.244629 278.992828,567.931152 278.003479,568.544189 
	C264.588776,576.855957 254.943100,588.451538 247.820435,602.431458 
	C240.618118,616.567871 236.166306,631.553894 234.571671,647.203491 
	C233.029709,662.336365 233.141479,677.484253 240.113922,691.735352 
	C244.728775,701.167847 251.718521,707.870972 261.393036,711.802856 
	C263.015839,712.462341 264.791656,713.476379 266.299316,711.351624 
	C269.315247,707.101135 268.528717,702.507690 264.200836,699.861755 
	C261.896393,698.452820 259.977936,696.666138 258.242157,694.599365 
	C251.345520,686.387695 249.189316,676.553162 248.727570,666.253113 
	C248.053299,651.212402 251.084717,636.724609 256.745300,622.890259 
	C265.024628,602.655701 278.337738,587.487854 300.291901,581.404358 
	C303.437317,580.532776 306.070526,580.752441 308.911743,582.137817 
	C327.692352,591.294922 347.819305,595.705566 368.309662,598.757080 
	C393.812531,602.555054 419.345947,602.922546 444.994598,599.980530 
	C468.645325,597.267578 491.632446,592.361145 513.170044,581.866455 
	C515.374756,580.792114 517.531250,580.405884 519.920837,581.049866 
	C530.914734,584.012329 540.883911,588.875854 548.549744,597.484924 
	C567.621094,618.902893 574.425903,644.482239 571.984436,672.431519 
	C570.311584,691.580994 560.227661,701.891785 543.979187,703.673279 
	C541.531494,703.941589 538.980591,703.735046 536.528320,703.388123 
	C532.510071,702.819519 530.677368,704.664612 530.007996,708.393555 
	C529.217407,712.798157 532.693481,712.961853 535.262390,713.396362 
	C541.368469,714.429321 547.574402,714.523376 553.647522,713.155945 
	C573.802429,708.617554 586.564514,692.422424 587.722107,670.441406 
	C588.733765,651.231812 586.350525,632.540649 579.451965,614.545410 
	C572.113770,595.403381 561.095093,579.096191 542.984375,568.428589 
	C541.747681,567.700134 540.178711,567.183838 540.161804,565.327454 
	C564.185425,545.051697 571.560608,540.266602 576.557617,497.987457 
	C577.028748,497.948242 577.592224,497.725586 577.985413,497.895935 
	C581.650269,499.483673 585.288696,501.132477 588.929260,502.776001 
	C595.574829,505.776154 596.436462,505.268768 595.788086,497.936340 
	C593.213684,468.821472 585.053894,441.112518 574.360840,414.067871 
	C572.054688,408.235168 572.174194,408.136383 578.306824,407.660248 
	C598.350037,406.104187 613.998840,396.915283 623.685669,379.238342 
	C639.329712,350.690430 632.095398,313.050903 607.315308,290.721344 
	C580.669800,266.710815 539.759033,266.206421 511.383270,289.525818 
	C508.599426,291.813629 505.756683,294.029755 502.302216,296.789764 
	C499.980713,289.333771 498.410400,282.553040 497.276733,275.317993 
	C502.827484,275.029816 507.289062,278.230682 512.498291,277.729553 
	C512.498291,276.126953 512.667542,274.799622 512.473022,273.527924 
	C509.405487,253.470734 506.409424,233.401138 503.095703,213.384262 
	C502.362885,208.957764 503.381409,206.016708 506.552246,202.791718 
	C527.457886,181.528961 543.805603,157.647827 549.101990,127.473564 
	C554.344604,97.606018 541.695190,70.161369 514.944336,55.992397 
	C487.678864,41.550869 459.115356,40.995358 430.147064,50.257092 
	C406.715302,57.748665 387.362213,72.298309 368.003845,86.817818 
	C347.491241,102.203026 328.472412,119.570122 306.723877,133.305435 
	C288.320648,144.928024 269.211456,154.937485 247.044800,157.553619 
	C254.238525,159.115845 261.473022,159.119629 268.703430,158.227768 
	C293.041779,155.225662 314.643463,144.798782 335.428009,132.684219 
	C356.581299,120.354721 377.120880,106.976059 398.193604,94.503532 
	C418.192719,82.666428 439.242432,73.684891 463.214020,74.704170 
	C480.860840,75.454514 496.295441,80.899788 506.524963,96.384857 
	C525.132690,124.552460 516.781433,165.805405 488.743561,184.698959 
	C487.879028,185.281525 486.993225,186.413467 485.194763,185.005463 
	C491.759003,166.343948 496.154449,147.122528 492.930511,126.990852 
	C488.416748,156.648376 473.321899,180.758713 458.915314,180.212982 
	C458.603394,170.972504 459.542084,161.595322 457.622345,152.435867 
	C455.707642,143.300659 453.299500,134.302917 447.702057,125.215782 
	C447.453064,127.082916 447.285858,127.579010 447.344513,128.046799 
	C447.488647,129.196686 447.697540,130.342224 447.948883,131.474304 
	C451.273285,146.448502 450.763336,161.193878 445.649841,175.756500 
	C444.314850,179.558334 442.786407,181.672119 438.119598,180.592651 
	C433.785706,179.590179 429.205017,179.467163 424.721497,179.328171 
	C383.080414,178.037369 344.340912,188.851746 307.555389,207.658249 
	C304.037720,209.456650 300.695099,211.597397 297.271210,213.579224 
	C299.343597,214.012833 300.953918,213.656448 302.529907,213.185211 
	C341.790283,201.446564 381.748474,195.466660 422.804474,198.707001 
	C443.827484,200.366241 464.307983,204.584122 484.097473,211.995071 
	C486.698090,212.968979 488.152527,214.514679 488.616760,217.331345 
	C490.618683,229.478012 492.754944,241.602539 494.848816,253.734009 
	C495.326508,256.501526 494.025391,257.441925 491.460083,257.021179 
	C487.850250,256.429077 484.246674,255.798126 480.643188,255.168152 
	C471.298676,253.534561 460.800598,255.233093 454.055847,245.944412 
	C452.209290,246.477036 450.945190,247.897629 449.787811,249.238113 
	C447.339783,252.073380 444.400543,252.556854 440.827698,252.321762 
	C431.468994,251.705948 422.696869,249.958328 416.270844,242.265305 
	C415.643738,241.514557 414.664185,241.069824 413.948761,240.378967 
	C411.986084,238.483673 410.293976,238.793930 408.322205,240.548218 
	C404.966064,243.534164 401.546753,246.485641 397.906860,249.108643 
	C390.144501,254.702469 377.656342,254.196381 371.091217,247.869324 
	C367.967682,244.859009 365.664032,244.829315 363.787445,248.662354 
	C360.779083,254.807114 355.798859,257.637146 349.194031,258.217712 
	C347.553802,258.361908 345.937653,258.899323 344.336334,259.348267 
	C328.811493,263.700653 313.503082,268.611267 299.495972,277.250122 
	C308.025604,279.691345 315.812775,274.100098 324.788605,274.525757 
	C323.072144,281.870911 321.442596,288.844086 319.520966,297.067078 
	C305.466980,284.755585 290.745941,275.917358 273.043213,272.455414 
	C303.464264,254.420334 336.399536,245.663940 370.426239,239.998734 
	C337.449036,236.201538 305.945831,242.113556 275.097107,254.302078 
	C271.740234,244.792908 270.287567,235.582321 268.004364,226.606033 
	C264.780151,213.930252 264.929840,214.207245 251.696213,213.190216 
	C238.561813,212.180771 226.104706,208.828308 215.797714,199.865692 
	C200.140060,186.250320 194.939545,159.680099 212.234573,142.476700 
	C220.767899,133.988586 231.419174,129.365051 242.979721,126.777969 
	C249.687119,125.276955 256.498932,124.242424 263.263733,122.997971 
	C249.721329,120.025620 236.302750,120.319710 223.336975,124.757545 
	C202.261078,131.971252 189.903152,146.843002 187.669708,169.111603 
	C185.575943,189.987671 193.596344,206.480042 211.264023,218.086365 
	C222.645126,225.562881 235.449432,228.231750 248.751694,228.701981 
	C253.252411,228.861084 255.229187,230.342834 256.048218,234.769638 
	C258.044312,245.558517 260.233246,256.325775 262.833618,266.982361 
	C263.982117,271.689178 262.425201,272.939850 258.132599,273.020325 
	C247.260696,273.224121 237.077209,276.252441 227.594238,281.418213 
	C201.129456,295.834717 186.824356,325.133240 189.880341,355.199158 
	C192.884796,384.758362 217.348160,407.569214 245.069946,407.822357 
	C246.350616,407.834045 247.784027,407.670349 248.842468,409.294434 
	C248.640900,410.037872 248.495453,411.011719 248.121552,411.888092 
	C241.967667,426.312073 236.946777,441.119751 232.974915,456.287872 
	C229.515533,469.498962 226.591873,482.819885 225.370651,496.442963 
	C224.560104,505.485107 225.537903,506.033813 233.650513,502.325897 
	C237.159897,500.721893 240.276718,497.872711 245.135391,498.250366 
	C245.093643,506.090363 245.966629,513.664734 248.016190,521.047546 
	C250.083344,528.493652 253.406937,535.369873 258.144470,542.348999 
M282.729858,696.241150 
	C278.383118,702.118591 275.942352,708.648987 274.839844,715.934204 
	C272.046295,734.393188 287.050446,748.883850 305.294586,745.056641 
	C317.009857,742.599060 325.755188,735.492371 333.091553,726.653320 
	C347.033264,709.856079 357.445068,690.933167 365.522491,670.689514 
	C367.365448,666.070679 369.406036,661.530762 371.355652,656.954590 
	C371.901459,657.135193 372.447235,657.315796 372.993011,657.496399 
	C374.209534,683.683411 365.738678,707.941467 357.246368,732.473083 
	C378.816010,710.225281 394.913971,683.741821 415.495972,659.794250 
	C416.109558,662.450562 415.267761,663.741577 414.720764,665.049194 
	C409.582031,677.334656 404.415771,689.608521 399.260559,701.887024 
	C396.877991,707.561829 394.060394,713.082153 392.662109,719.119751 
	C390.818542,727.079956 393.272491,732.988159 399.096588,735.071106 
	C403.264832,736.561829 407.081940,735.112976 410.604095,733.262634 
	C422.364349,727.084473 430.557190,717.380493 436.749115,705.851990 
	C437.856110,703.790955 438.499054,701.543945 436.169067,699.713928 
	C433.397339,700.383606 432.451324,702.596375 431.085724,704.449707 
	C426.058868,711.271790 421.469116,718.513855 414.061279,723.165894 
	C411.754242,724.614624 409.295624,726.016418 406.746460,723.789612 
	C404.451263,721.784485 404.332458,719.080139 405.280914,716.421997 
	C406.902191,711.878296 408.540924,707.325439 410.489746,702.916748 
	C419.036865,683.581177 428.063965,664.445801 434.308105,644.175537 
	C435.395142,640.646790 436.122650,637.076111 435.984039,633.381165 
	C435.915833,631.562073 435.873962,629.585205 433.782349,628.727051 
	C431.782349,627.906494 430.133728,628.972412 428.795410,630.194153 
	C426.961212,631.868408 425.187531,633.677063 423.716888,635.670837 
	C412.250092,651.216614 400.705292,666.701965 388.579865,681.743774 
	C387.184814,683.474365 386.165649,685.767639 383.009399,686.196960 
	C383.449249,682.081726 383.741241,678.171997 384.305756,674.302002 
	C385.681152,664.873169 386.497559,655.443115 384.634186,645.996216 
	C383.120636,638.322693 379.532440,631.922302 372.626343,627.816833 
	C370.786896,626.723267 368.670044,625.614624 366.522064,626.978210 
	C364.387634,628.333191 365.036774,630.666870 365.466431,632.473816 
	C367.234100,639.908142 366.006866,647.013123 363.653778,654.066833 
	C356.231506,676.316162 344.387726,696.082397 329.601929,714.130432 
	C324.109436,720.834778 318.137695,727.150085 310.092072,730.987671 
	C299.002228,736.277344 288.073608,729.852417 288.900726,718.260193 
	C289.376953,711.585999 292.108154,705.728271 297.510956,701.388123 
	C306.481445,694.181885 313.097107,694.781067 320.460480,703.478271 
	C320.652924,703.705566 321.038666,703.769165 321.428772,703.953857 
	C323.135010,703.732666 323.731781,702.309082 324.346863,700.958008 
	C328.457428,691.929260 322.673370,682.208557 312.727997,681.222656 
	C299.858307,679.947021 290.811005,686.338745 282.729858,696.241150 
M506.883209,740.397766 
	C516.643494,723.659302 521.901489,705.275757 526.581238,686.669922 
	C531.641296,666.552002 534.265442,645.755310 543.197876,626.706116 
	C543.274414,626.542908 542.910645,626.173096 542.644836,625.713806 
	C539.438843,626.054749 536.800781,627.629517 534.250793,629.584167 
	C527.390564,634.842896 525.470459,642.602478 523.298889,650.345093 
	C519.886597,662.511169 517.054504,674.904724 511.077301,686.184814 
	C507.386444,693.150146 503.218597,699.804443 495.648285,703.297241 
	C492.141083,704.915405 488.492950,705.527527 485.350647,702.690796 
	C482.288513,699.926453 481.296478,696.375916 482.278503,692.240112 
	C483.388672,687.564697 486.141998,683.801270 488.689362,679.903381 
	C493.515930,672.517883 498.669250,665.298645 501.087982,656.638000 
	C505.480988,640.907898 497.578094,628.500305 481.559387,625.918823 
	C467.486725,623.651001 451.306549,636.764282 450.376068,651.204956 
	C450.124634,655.107117 450.459930,658.925720 452.975800,662.130554 
	C455.628479,665.509583 459.163910,666.680359 463.203064,665.132446 
	C467.087860,663.643616 468.019196,660.395752 467.514252,656.543152 
	C467.320312,655.063293 466.935791,653.535828 467.120178,652.091614 
	C467.887848,646.079712 470.500671,641.316467 476.622040,639.213684 
	C480.618744,637.840820 484.240601,638.483948 487.156586,641.608887 
	C491.568756,646.337280 490.842682,651.677307 488.514587,656.994385 
	C485.884369,663.001343 481.792389,668.074402 477.745239,673.165771 
	C473.071503,679.045349 468.587494,684.995483 466.975769,692.631470 
	C464.845154,702.726013 472.485870,713.458313 482.765991,714.814270 
	C490.803040,715.874390 497.461548,713.155762 503.475586,708.126160 
	C504.773071,707.041077 505.617065,705.080383 508.489899,705.536194 
	C503.335602,725.283691 495.425781,743.091736 477.750854,754.631104 
	C470.232697,759.539612 461.720123,761.245178 452.960114,757.573181 
	C446.379395,754.814575 442.860687,747.557007 444.520691,740.749817 
	C446.321564,733.364868 452.460114,728.463928 459.208588,729.042419 
	C461.071136,729.202026 463.351105,730.710327 464.447174,728.037842 
	C465.471497,725.540283 464.782684,723.034607 462.979767,721.063660 
	C458.833130,716.530701 453.523865,716.363708 448.201355,717.966553 
	C435.526703,721.783447 430.363831,731.639038 428.541656,743.751221 
	C427.204163,752.641907 433.176025,763.473022 441.917572,768.247131 
	C452.469330,774.009949 463.568024,773.013672 474.407959,769.619934 
	C489.268799,764.967346 498.684906,753.788208 506.883209,740.397766 
M161.336945,517.500854 
	C161.144882,520.891174 162.035507,525.676392 157.297012,525.783203 
	C152.681702,525.887268 153.244492,521.023865 152.708405,517.695679 
	C152.682098,517.532410 152.698654,517.362793 152.685120,517.196899 
	C151.717682,505.340088 150.559448,493.496429 149.838791,481.577789 
	C148.978149,493.064606 149.024124,504.537109 148.943710,516.008728 
	C148.925110,518.660767 148.524017,521.315674 148.204971,523.958008 
	C147.991760,525.723755 147.176468,527.274963 145.294556,527.579895 
	C143.296768,527.903625 141.543289,526.921265 140.797318,525.120239 
	C139.853180,522.840698 139.204742,520.401001 138.727951,517.971680 
	C135.313354,500.573303 135.825226,482.860138 134.348633,465.264130 
	C133.298126,473.287994 132.236923,481.323456 131.570847,489.391510 
	C130.042816,507.900085 130.781235,525.940674 141.244858,542.398560 
	C149.144302,554.823425 149.706284,568.667786 147.852051,582.911621 
	C145.705658,599.399658 143.497696,615.908264 143.295853,632.573425 
	C143.167007,643.211975 149.310242,649.257568 159.948166,649.628296 
	C162.766129,649.726501 163.850006,648.657349 163.869003,645.897339 
	C164.011017,625.254944 164.235321,604.593811 161.247421,584.106384 
	C158.828018,567.516968 159.700912,551.589417 168.579178,536.810669 
	C177.332367,522.240112 181.989685,506.515320 182.424988,489.450623 
	C182.681015,479.414001 182.252670,469.512451 180.194626,459.695404 
	C179.627502,460.167358 179.419540,460.612427 179.350723,461.078064 
	C177.065369,476.542236 175.429977,492.076294 174.218674,507.660950 
	C173.846100,512.454651 173.197311,517.234131 172.471909,521.989197 
	C172.214325,523.677551 171.161514,525.124817 169.131516,525.134338 
	C167.090866,525.143860 166.323975,523.629089 165.732330,522.008057 
	C164.861862,519.623108 164.814789,517.126404 164.678177,514.625244 
	C164.270355,507.159271 163.395691,499.726990 162.777542,492.243713 
	C162.299469,500.356720 161.821396,508.469757 161.336945,517.500854 
M252.124512,559.611145 
	C247.960876,572.173645 243.797256,584.736145 239.633621,597.298645 
	C246.731674,586.031555 254.565918,575.440002 265.180573,567.180786 
	C266.251770,566.347229 267.226013,564.910034 265.962372,563.751892 
	C262.346893,560.438293 259.475525,556.303162 255.442429,553.575928 
	C253.057236,554.889465 253.325043,557.222107 252.124512,559.611145 
z"/>
<path fill="#000000" opacity="1.000000" stroke="none" 
	d="
M576.413452,921.422852 
	C579.552551,912.583618 580.539551,903.830750 579.438660,894.974670 
	C577.728760,881.219910 568.582458,873.344177 556.823730,867.946716 
	C535.521484,858.168396 512.974487,852.407532 490.201904,847.257751 
	C479.495361,844.836670 468.926483,841.501892 460.425690,833.943481 
	C446.490753,821.553650 447.366058,805.214294 462.490021,794.207397 
	C474.503876,785.463867 488.423096,781.531250 502.656921,778.500671 
	C517.696045,775.298706 533.021484,772.443298 548.173157,775.925232 
	C557.896301,778.159668 566.113464,776.292419 575.062927,773.233521 
	C592.108704,767.407349 609.369568,767.370239 626.257935,774.530090 
	C627.897461,775.225159 629.794922,775.683533 630.589111,778.418274 
	C614.713623,781.143311 597.920349,775.878174 582.171265,784.026428 
	C589.422363,792.051697 596.879456,799.672363 594.992126,811.267517 
	C593.981689,817.475708 591.371216,823.007629 586.458923,827.252869 
	C576.047546,836.250244 559.093567,836.697205 547.978394,828.218201 
	C536.315186,819.321350 534.625000,806.507324 542.921997,789.787109 
	C542.169434,788.374451 540.775146,788.425598 539.469482,788.325378 
	C521.213867,786.924011 503.590454,789.375610 486.801514,796.952454 
	C482.801880,798.757507 479.236237,801.147461 476.261627,804.393555 
	C469.289337,812.002197 470.202209,819.227661 478.940521,824.648682 
	C483.491272,827.471924 488.433411,829.420227 493.606812,830.859985 
	C509.790527,835.363953 526.368408,838.361572 542.330139,843.718262 
	C553.062134,847.319763 563.998352,850.450256 573.654419,856.595093 
	C594.385559,869.787720 602.872070,889.898560 597.911194,914.146423 
	C594.289917,931.846863 586.343079,947.049377 571.669128,958.203186 
	C568.200806,960.839478 564.444580,962.926697 560.357117,964.487610 
	C545.155334,970.292908 536.029724,967.796509 525.990234,954.598267 
	C519.225281,961.679932 511.611786,967.526550 501.451569,968.188599 
	C490.984955,968.870728 482.667938,964.739380 476.696930,955.471985 
	C472.433746,958.651733 469.921936,963.058716 466.415283,966.488342 
	C463.512695,969.327332 460.564392,971.920227 456.439850,972.788635 
	C454.186951,973.263000 452.017151,973.260193 450.482697,971.352966 
	C448.948242,969.445862 450.037323,967.451904 451.036865,965.768127 
	C458.043549,953.965759 466.801056,943.488708 475.911560,933.292847 
	C480.110535,928.593567 484.395935,923.971497 488.556641,919.408203 
	C485.098999,919.408203 481.711761,919.440796 478.325287,919.402039 
	C468.400940,919.288513 461.521729,914.343933 460.102203,906.339722 
	C458.607513,897.911743 464.382263,888.830322 473.245087,885.705444 
	C479.047424,883.659729 484.666168,881.081970 490.722687,879.766052 
	C492.158447,879.454102 493.672241,879.042053 494.380157,877.113770 
	C492.749054,873.460510 489.643005,871.140137 485.762695,870.560974 
	C475.691010,869.057800 465.856293,868.964722 457.606812,876.653625 
	C454.051819,879.967224 451.686523,883.402649 451.107483,888.472778 
	C446.009277,933.114624 412.828491,967.339233 366.955231,970.337158 
	C345.800446,971.719727 326.372620,966.938721 308.843445,954.700989 
	C280.943542,935.223267 269.450134,896.708069 283.464722,865.847534 
	C292.640594,845.641968 309.456909,834.144775 331.003967,829.910706 
	C348.261200,826.519592 364.496185,829.636414 379.016113,839.875305 
	C397.303650,852.771057 403.120117,877.726501 392.314484,896.736145 
	C386.338165,907.249817 376.673920,912.251099 365.125427,914.122375 
	C363.791473,914.338562 362.147614,914.852417 360.837189,913.129028 
	C361.957153,910.970703 364.322296,910.249756 366.076080,908.892090 
	C375.976685,901.227661 379.455963,890.846008 378.252319,878.872009 
	C376.939941,865.816467 369.184875,856.980469 356.897461,853.966675 
	C333.995667,848.349365 310.407227,857.683289 304.466766,885.158997 
	C298.720276,911.737305 314.170746,936.517700 341.474884,944.673401 
	C378.836517,955.833496 418.718262,935.173706 428.483459,892.297974 
	C436.014221,859.232849 424.836182,831.768494 401.673767,808.269409 
	C385.631317,791.993835 365.316956,784.677307 343.567810,780.482422 
	C323.734070,776.656860 304.874664,780.993591 286.385834,787.950195 
	C274.910187,792.268066 264.351593,798.148621 254.807083,805.860291 
	C253.819550,806.658203 252.551178,807.108582 251.157516,807.857605 
	C250.359131,805.371582 252.127655,804.660461 253.216522,803.636353 
	C270.161774,787.697144 290.544708,778.992737 313.216522,775.033386 
	C337.884949,770.725403 362.086121,772.153687 385.309998,781.871399 
	C419.749115,796.281860 440.693634,822.279419 449.419434,858.382446 
	C449.687744,859.492676 450.148560,860.556396 450.837158,862.570496 
	C460.407349,852.669495 472.387848,853.436279 484.223999,853.783447 
	C497.167542,854.163147 505.852753,860.885315 510.378723,872.688049 
	C511.923126,876.715515 514.027832,877.830627 518.020203,878.022522 
	C526.140381,878.412903 534.394653,877.828430 542.318115,880.190186 
	C545.089172,881.016113 548.605713,881.550659 549.030334,885.272461 
	C549.437805,888.844055 546.461365,890.353333 543.946716,892.019836 
	C525.828979,904.026794 508.774933,917.287842 494.701599,934.032288 
	C493.315491,935.681519 491.817566,937.342590 490.887634,939.249756 
	C487.917999,945.340088 491.909668,951.741821 498.593231,951.989868 
	C503.960938,952.189148 508.259796,950.061096 511.961639,946.330444 
	C521.621155,936.595947 528.798096,924.827820 537.957214,914.686951 
	C540.521729,911.847595 543.080811,909.001404 545.720276,906.232544 
	C547.242432,904.635803 549.166016,903.628235 551.319092,903.093994 
	C554.180115,902.384155 556.659607,903.024780 558.439880,905.427612 
	C560.191956,907.792542 558.819702,909.884521 557.490601,911.825867 
	C553.538635,917.598267 549.499146,923.310791 545.535400,929.075195 
	C543.448853,932.109558 541.670776,935.351318 540.677124,938.893494 
	C538.702271,945.933777 542.481750,950.482300 549.691162,949.684204 
	C556.351135,948.946899 561.496399,945.239502 565.708557,940.331848 
	C570.401611,934.864197 574.245728,928.823730 576.413452,921.422852 
M565.190247,792.590576 
	C561.534973,794.196899 558.945740,796.981873 557.063416,800.375488 
	C554.017639,805.866882 555.648071,812.443054 560.694519,815.727112 
	C565.454529,818.824829 571.882141,818.012939 575.093140,813.831055 
	C578.354126,809.584045 578.482788,804.934570 576.412598,800.195618 
	C574.423828,795.643127 571.210632,792.568481 565.190247,792.590576 
M496.166809,896.653748 
	C496.517975,895.063660 497.208435,893.445984 495.687347,891.829834 
	C489.470032,892.381775 482.960419,892.422729 479.009003,898.612915 
	C477.765869,900.560364 476.764496,902.921631 478.722473,905.073547 
	C480.502167,907.029541 482.697998,907.935791 485.459869,907.202515 
	C490.752289,905.797363 493.993225,902.297668 496.166809,896.653748 
M514.914490,896.364014 
	C516.270691,895.002625 518.126770,894.079224 518.785767,892.058350 
	C512.008789,890.226807 510.850708,891.281555 510.361420,899.820862 
	C511.763519,898.753662 513.067932,897.760864 514.914490,896.364014 
z"/>
<path fill="#000000" opacity="1.000000" stroke="none" 
	d="
M219.515701,871.331299 
	C228.445908,866.619507 237.487320,868.149475 247.245972,868.651184 
	C245.633316,871.172668 243.827423,870.951111 242.106049,871.180481 
	C225.253189,873.425354 212.792908,882.356750 206.178482,897.751587 
	C199.712189,912.801758 200.878159,927.731995 212.023529,940.810974 
	C224.658554,955.637817 249.376587,954.878296 259.055054,939.226624 
	C264.148926,930.988953 264.487244,922.220459 260.050568,913.517822 
	C256.497528,906.548401 248.982513,903.203491 240.098801,904.336182 
	C233.436127,905.185608 228.142868,910.101440 226.767044,916.717285 
	C225.344147,923.559326 230.689178,930.615845 237.402374,930.770203 
	C240.836929,930.849121 243.689087,929.853638 245.081650,926.415405 
	C246.433853,923.076782 245.737564,920.233948 242.797958,918.011963 
	C242.165604,917.533997 241.383789,917.089722 241.572357,915.536438 
	C244.565842,914.082153 247.096848,915.581421 249.333832,917.515625 
	C252.644989,920.378662 253.771347,924.086182 252.587616,928.348816 
	C250.193604,936.969849 240.710938,941.486145 231.182083,938.592102 
	C222.121094,935.840271 216.032181,928.390015 215.796860,919.767517 
	C215.514069,909.405579 222.004578,899.553589 231.580597,895.809509 
	C243.715118,891.065063 258.105682,893.718262 266.192719,902.641846 
	C276.411682,913.917908 278.146606,926.923767 272.332916,940.725220 
	C263.442963,961.829651 237.485092,970.279236 215.616562,959.506592 
	C188.961685,946.376099 182.387772,908.897461 202.561951,884.852783 
	C207.204086,879.319946 212.554382,874.603271 219.515701,871.331299 
z"/>
<path fill="#000000" opacity="1.000000" stroke="none" 
	d="
M494.871490,514.923950 
	C493.995728,504.749756 488.451202,497.200317 483.060913,490.030701 
	C483.321167,488.610687 483.979645,488.144989 484.802643,487.877594 
	C503.269226,481.877289 510.311646,452.259216 492.962067,436.725403 
	C483.735870,428.464844 469.257782,431.481354 462.684204,442.990387 
	C459.218628,449.057983 457.676208,455.619904 459.061798,462.678436 
	C459.337341,464.082153 459.889954,465.563965 458.939850,467.624786 
	C444.572235,457.129578 428.792633,450.661621 410.911835,450.673370 
	C393.228058,450.684967 377.598236,457.282349 362.525299,467.318451 
	C362.286377,461.452789 363.225403,456.527771 362.150421,451.619843 
	C359.391876,439.024780 351.440887,431.741119 340.504120,432.089874 
	C329.995850,432.424927 321.084595,441.331604 319.328094,453.254974 
	C316.960785,469.324799 322.183929,479.451813 337.803680,488.985107 
	C338.279633,491.131897 336.469482,492.216614 335.449951,493.608978 
	C321.574310,512.558655 322.773376,531.274658 338.952026,548.221985 
	C345.901306,555.501465 353.628784,561.767944 362.421265,566.701843 
	C363.530579,567.324402 364.941193,567.693542 365.370392,569.688904 
	C362.808319,571.003723 360.247620,569.651123 357.868591,569.262817 
	C334.126556,565.387634 311.465515,558.670471 291.871216,543.905884 
	C269.347168,526.933716 261.489380,504.411835 266.183563,477.018188 
	C267.450409,469.625305 270.032410,462.585693 272.383942,454.742035 
	C263.681152,456.497589 256.913300,461.647034 247.504700,464.542023 
	C262.362061,408.730774 286.962402,361.002686 335.752747,327.932281 
	C329.379364,323.372742 322.110291,321.852814 315.820618,318.607758 
	C315.735046,316.039917 317.768860,315.898621 319.118042,315.209473 
	C330.021301,309.639954 341.726196,307.339050 353.853851,307.404236 
	C357.666748,307.424744 358.741577,306.186615 358.910706,302.591217 
	C359.380646,292.601654 362.135193,283.325256 368.763824,274.654541 
	C372.343079,278.018951 375.679993,281.141663 379.001740,284.280426 
	C390.475037,295.121735 390.669403,295.134552 402.373749,284.630707 
	C403.984283,283.185364 405.758423,281.809662 406.981384,280.067902 
	C409.802856,276.049469 412.046112,277.243683 414.829376,280.182312 
	C418.141479,283.679291 421.838074,286.813019 425.380066,290.091156 
	C428.902008,293.350739 432.298462,293.455322 435.868439,289.985718 
	C439.926117,286.042084 444.182434,282.302368 448.366425,278.489410 
	C449.569305,277.393219 450.360565,275.763733 452.658081,275.367218 
	C457.587524,280.640106 459.499115,287.468079 461.188416,294.384796 
	C461.581604,295.994751 461.724274,297.666016 461.980255,299.309387 
	C463.123413,306.648895 463.108521,306.952484 470.779205,307.321991 
	C481.062408,307.817261 490.900818,309.915527 500.305939,314.039154 
	C502.239838,314.887115 504.447235,315.419037 506.009094,317.907166 
	C500.075256,322.022705 492.486603,322.911987 485.945831,327.769714 
	C534.455078,361.033142 558.888123,408.936890 573.906921,464.612732 
	C564.884399,461.873108 558.234802,457.183655 550.049316,455.223236 
	C549.821472,458.984070 551.402405,461.797272 552.253479,464.743713 
	C558.125366,485.071869 559.289856,505.144836 548.155823,524.210510 
	C540.225098,537.790894 527.785522,546.437805 514.179260,553.540039 
	C496.984833,562.515198 478.445374,567.099792 459.393738,569.913025 
	C458.440216,570.053711 457.421051,570.337036 456.438080,569.263000 
	C456.892395,567.038574 459.132019,566.659790 460.683075,565.670593 
	C471.299957,558.899658 481.073669,551.159912 488.426544,540.808533 
	C493.817688,533.218811 496.144745,524.694946 494.871490,514.923950 
M317.048584,414.449127 
	C323.470764,410.731201 331.005524,409.377014 337.356140,405.325989 
	C333.964294,400.705627 329.142303,399.405396 323.056335,401.210541 
	C314.611084,403.715485 306.232910,413.668396 305.962799,421.563995 
	C309.455017,419.297028 312.924011,417.045105 317.048584,414.449127 
M495.055664,410.336029 
	C501.804352,412.764038 507.981720,416.409088 514.601074,420.699127 
	C513.455811,411.300873 505.048035,402.565277 496.203308,400.767853 
	C491.625488,399.837555 487.486572,400.649200 484.295013,405.114899 
	C487.548737,407.617737 490.934235,408.857178 495.055664,410.336029 
z"/>
<path fill="#000000" opacity="1.000000" stroke="none" 
	d="
M372.633728,556.397583 
	C363.522308,549.578918 355.289856,542.331177 348.225159,533.830933 
	C340.996582,525.133606 339.846100,517.434021 346.344299,508.294220 
	C360.804047,487.956482 378.706299,471.969666 404.377747,467.449188 
	C419.665558,464.757141 432.910156,470.600616 445.305115,478.579346 
	C456.764374,485.955719 466.105042,495.694855 474.135254,506.665955 
	C481.415253,516.612061 480.751587,526.165283 472.421509,535.142029 
	C461.131805,547.308228 448.328674,557.679077 434.206360,566.283142 
	C418.401825,575.912109 402.249146,575.402344 386.442169,566.024780 
	C381.731750,563.230347 377.420349,559.763306 372.633728,556.397583 
M425.491150,485.334839 
	C416.450256,487.028748 407.422028,487.855927 398.349457,485.413635 
	C396.953613,485.037872 395.351990,485.217743 393.875031,485.391388 
	C389.320068,485.926849 385.482605,487.865356 383.527740,492.179688 
	C381.669281,496.281281 383.177521,499.998108 385.882629,503.238556 
	C387.688416,505.401794 389.330261,508.028961 391.665100,509.368530 
	C403.565338,516.196045 407.214447,526.313477 405.384888,539.497681 
	C404.455597,546.194580 403.836975,547.075928 396.988739,545.519043 
	C393.057190,544.625244 389.893555,541.647278 385.563049,541.245422 
	C389.565155,554.206238 402.461090,561.225037 416.787689,558.593445 
	C425.612335,556.972473 434.222229,549.019836 433.952789,542.148193 
	C429.959106,543.439758 426.141998,544.894775 422.208466,545.889160 
	C417.536407,547.070312 416.115082,545.911438 415.960083,541.027161 
	C415.812347,536.372498 416.036102,531.705994 415.890778,527.051208 
	C415.760345,522.873840 417.375397,519.770264 420.583588,517.130493 
	C425.329285,513.225647 430.378662,509.652374 434.483887,505.005096 
	C437.722626,501.338684 440.035248,497.349701 437.951813,492.327148 
	C435.840302,487.236725 431.581207,485.392761 425.491150,485.334839 
z"/>
<path fill="#000000" opacity="1.000000" stroke="none" 
	d="
M581.747437,297.068115 
	C602.068848,307.211090 612.970703,323.718750 613.705078,345.654602 
	C614.489685,369.089722 602.238708,385.355713 577.733521,387.540894 
	C573.951355,387.878174 570.107422,387.778168 566.866333,384.786377 
	C568.378357,381.761627 571.388733,380.806488 573.744263,379.148102 
	C591.908508,366.359711 594.654541,340.778961 579.492859,325.038971 
	C570.330078,315.526672 556.218018,313.067139 544.723572,319.528503 
	C541.064819,321.585205 539.117676,321.122437 536.315796,318.238403 
	C531.942566,313.736938 526.947327,309.839722 522.238098,305.706207 
	C532.562439,292.337677 561.678284,288.131073 581.747437,297.068115 
z"/>
<path fill="#000000" opacity="1.000000" stroke="none" 
	d="
M233.963715,338.051636 
	C228.357132,359.583069 237.493057,374.047577 256.204834,384.928711 
	C250.201599,388.480865 244.540802,387.915131 239.215546,386.878387 
	C219.195129,382.980652 208.235703,368.865112 207.499954,348.549347 
	C206.441208,319.314789 231.281082,290.757294 265.536407,291.827484 
	C278.162170,292.221893 289.384613,296.991821 300.150635,305.106293 
	C293.683746,309.993011 288.341553,315.351868 282.833588,320.535889 
	C281.473969,321.815552 280.002411,320.881042 278.697144,320.135345 
	C261.251862,310.169037 240.345139,319.188751 233.963715,338.051636 
z"/>
<path fill="#000000" opacity="1.000000" stroke="none" 
	d="
M333.019135,448.382080 
	C335.564819,444.057983 338.952850,441.927429 343.616974,443.045776 
	C347.635101,444.009247 350.434967,446.579956 351.127869,450.828918 
	C351.836121,455.171906 350.455750,458.786255 346.551086,461.066650 
	C342.870178,463.216309 339.076263,462.954865 335.799805,460.347626 
	C332.012115,457.333557 330.899109,453.353699 333.019135,448.382080 
z"/>
<path fill="#000000" opacity="1.000000" stroke="none" 
	d="
M470.825775,454.568054 
	C470.837280,448.013550 473.509155,444.172485 478.529877,442.982971 
	C482.579834,442.023468 487.183044,444.528473 489.053925,448.709900 
	C491.361206,453.866730 489.245148,459.464722 484.178467,461.607697 
	C478.479584,464.017975 473.957581,461.761139 470.825775,454.568054 
z"/>
<path fill="#000000" opacity="1.000000" stroke="none" 
	d="
M338.846039,277.972168 
	C336.121246,272.575897 336.254639,272.223511 341.810760,271.698792 
	C345.022339,271.395477 348.225098,269.779327 352.022369,271.578033 
	C350.682739,277.906647 349.336151,284.268066 347.745270,291.783722 
	C343.394531,287.343536 341.786530,282.424591 338.846039,277.972168 
z"/>
<path fill="#000000" opacity="1.000000" stroke="none" 
	d="
M472.968689,270.811371 
	C476.955200,272.033081 481.019287,271.020050 484.925293,273.560303 
	C481.643829,279.487335 478.435242,285.282745 475.226654,291.078156 
	C474.681885,291.045410 474.137085,291.012634 473.592285,290.979889 
	C472.342346,284.977386 471.006226,278.990723 469.897308,272.962280 
	C469.583221,271.254883 471.076447,270.835022 472.968689,270.811371 
z"/>
</svg>